Tool - Opiate - Custom Remaster by MC Lurken (a.k.a. Beavis39)


1 - Sweat
2 - Hush
3 - Part of Me
4 - Cold and Ugly (live)
5 - Jerk-Off (live)
6.0 - Opiate
6.1 - The Gaping Lotus Experience


Setup:
-HP G72-250US
-Intel Core i3 M350 2.27GHz
-8Gb PC3-10700 RAM
-Win7 64-bit SP1
-SB X-Fi Surround 5.1


Process:
-Original 16-bit/44.1kHz files joined in Wavelab 6
-Remove DC offset and save as 64-bit float/44.1kHz
-Resample to 384kHz in Wavelab w/crystal resampler ultra(slow) relax background priority
-Create new 64-bit/384kHz master recording in Wavelab


As reported in Wavelab:
-Original 16-bit/44.1kHz: Apparent Bit Resolution = 16, Peak = -0.123db
-With DC Offset Removed: Apparent Bit Resolution = 18, Peak = -0.117db
-64-bit/384kHz Recording: Apparent Bit Resolution = 36, Peak = 0.701db


-Resample new 64-bit/384kHz master recording to 64-bit/96kHz in Wavelab w/crystal resampler ultra(slow) relax background priority
-Apply MBIT+ 24-bit Dither in Wavelab w/Izotope Ozone 5 VST Plugin
-Flac encode level 0 with Trader's Little Helper
-Tag and pic with xrecode II


foobar2000 1.1.14a / Dynamic Range Meter 1.1.1
log date: 2013-01-11 19:01:36

--------------------------------------------------------------------------------
Analyzed: ? / ?
--------------------------------------------------------------------------------

DR         Peak         RMS     Duration Track
--------------------------------------------------------------------------------
DR10       0.00 dB   -11.90 dB      3:46 ?-01 - Sweat
DR11       0.00 dB   -12.03 dB      2:48 ?-02 - Hush
DR10       0.00 dB   -11.30 dB      3:17 ?-03 - Part of Me
DR9       -0.44 dB   -11.38 dB      4:09 ?-04 - Cold and Ugly (live)
DR10      -0.46 dB   -11.90 dB      4:25 ?-05 - Jerk-Off (live)
DR11       0.00 dB   -13.72 dB      8:29 ?-06 - Opiate
--------------------------------------------------------------------------------

Number of tracks:  6
Official DR value: DR10

Samplerate:        96000 Hz
Channels:          2
Bits per sample:   24
Bitrate:           4608 kbps
Codec:             PCM



enjoy :)